<svg xmlns="http://www.w3.org/2000/svg" viewBox="0 0 64 64"><path d="M55.5,32.0L61.8,35.3L60.7,40.8L53.6,41.3L48.6,48.6L50.8,55.4L46.0,58.5L40.7,53.8L32.0,55.5L28.7,61.8L23.2,60.7L22.7,53.6L15.4,48.6L8.6,50.8L5.5,46.0L10.2,40.7L8.5,32.0L2.2,28.7L3.3,23.2L10.4,22.7L15.4,15.4L13.2,8.6L18.0,5.5L23.3,10.2L32.0,8.5L35.3,2.2L40.8,3.3L41.3,10.4L48.6,15.4L55.4,13.2L58.5,18.0L53.8,23.3Z" fill="#f06414"/><circle cx="32" cy="32" r="12.5" fill="#14100b"/><text x="32" y="34" text-anchor="middle" dominant-baseline="central" font-family="sans-serif" font-weight="bold" font-size="21" fill="#f06414">M</text></svg>